<svg width="22" height="16" viewBox="0 0 22 16" fill="none" xmlns="http://www.w3.org/2000/svg">
<path d="M8.28114 8.23767C8.28114 8.93386 8.5577 9.60154 9.04999 10.0938C9.54227 10.5861 10.2099 10.8627 10.9061 10.8627C11.6023 10.8627 12.27 10.5861 12.7623 10.0938C13.2546 9.60154 13.5311 8.93386 13.5311 8.23767C13.5311 7.54148 13.2546 6.8738 12.7623 6.38152C12.27 5.88923 11.6023 5.61267 10.9061 5.61267C10.2099 5.61267 9.54227 5.88923 9.04999 6.38152C8.5577 6.8738 8.28114 7.54148 8.28114 8.23767ZM21.0827 7.63298C18.8608 2.95252 15.5022 0.597046 10.9999 0.597046C6.4952 0.597046 3.13895 2.95251 0.917079 7.63533C0.827959 7.82404 0.781738 8.03015 0.781738 8.23884C0.781738 8.44754 0.827959 8.65365 0.917079 8.84236C3.13895 13.5228 6.49755 15.8783 10.9999 15.8783C15.5046 15.8783 18.8608 13.5228 21.0827 8.84002C21.2632 8.46033 21.2632 8.0197 21.0827 7.63298ZM10.9061 12.3627C8.62802 12.3627 6.78114 10.5158 6.78114 8.23767C6.78114 5.95955 8.62802 4.11267 10.9061 4.11267C13.1843 4.11267 15.0311 5.95955 15.0311 8.23767C15.0311 10.5158 13.1843 12.3627 10.9061 12.3627Z" fill="#40E0D0"/>
</svg>
