<svg width="24" height="25" viewBox="0 0 24 25" fill="none" xmlns="http://www.w3.org/2000/svg">
<path d="M11.9061 14.8627C12.6023 14.8627 13.27 14.5861 13.7623 14.0938C14.2546 13.6016 14.5311 12.9339 14.5311 12.2377C14.5311 12.1608 14.5276 12.0846 14.5211 12.0094L11.6779 14.8526C11.7531 14.8592 11.829 14.8627 11.9061 14.8627ZM20.5949 4.11799L19.5936 3.11768C19.5585 3.08254 19.5108 3.06281 19.4611 3.06281C19.4114 3.06281 19.3637 3.08254 19.3286 3.11768L16.7664 5.68057C15.3529 4.95823 13.7641 4.59705 11.9999 4.59705C7.4952 4.59705 4.13427 6.94315 1.91708 11.6353C1.82796 11.824 1.78174 12.0302 1.78174 12.2389C1.78174 12.4475 1.82796 12.6537 1.91708 12.8424C2.80302 14.7085 3.86981 16.2042 5.11747 17.3295L2.63802 19.808C2.60288 19.8432 2.58314 19.8908 2.58314 19.9405C2.58314 19.9902 2.60288 20.0379 2.63802 20.0731L3.63856 21.0736C3.67372 21.1088 3.7214 21.1285 3.7711 21.1285C3.82081 21.1285 3.86848 21.1088 3.90364 21.0736L20.5949 4.3833C20.6123 4.36589 20.6262 4.34521 20.6356 4.32245C20.645 4.29969 20.6499 4.27529 20.6499 4.25065C20.6499 4.22601 20.645 4.20161 20.6356 4.17885C20.6262 4.15608 20.6123 4.13541 20.5949 4.11799ZM7.78114 12.2377C7.78108 11.5252 7.96556 10.8248 8.31661 10.2048C8.66767 9.58484 9.17333 9.06634 9.78433 8.69986C10.3953 8.33337 11.0908 8.13139 11.8031 8.11359C12.5154 8.09579 13.2201 8.26279 13.8486 8.5983L12.7091 9.73783C12.2495 9.59068 11.7583 9.57296 11.2894 9.68661C10.8204 9.80026 10.3918 10.0409 10.0506 10.3821C9.70936 10.7233 9.46873 11.1519 9.35508 11.6209C9.24142 12.0899 9.25915 12.5811 9.4063 13.0406L8.26677 14.1802C7.94699 13.5827 7.78014 12.9153 7.78114 12.2377V12.2377Z" fill="#40E0D0"/>
<path d="M22.0828 11.633C21.2578 9.89546 20.2759 8.47866 19.1369 7.38257L15.7587 10.7611C16.0434 11.5055 16.1066 12.3164 15.9404 13.0959C15.7742 13.8755 15.3859 14.5902 14.8223 15.1537C14.2588 15.7173 13.544 16.1056 12.7645 16.2718C11.985 16.438 11.1741 16.3748 10.4297 16.0901L7.56421 18.9555C8.89358 19.5707 10.3722 19.8783 12 19.8783C16.5047 19.8783 19.8656 17.5322 22.0828 12.84C22.1719 12.6513 22.2182 12.4452 22.2182 12.2365C22.2182 12.0278 22.1719 11.8217 22.0828 11.633V11.633Z" fill="#40E0D0"/>
</svg>
