<svg width="14" height="13" viewBox="0 0 14 13" fill="none" xmlns="http://www.w3.org/2000/svg">
<path fill-rule="evenodd" clip-rule="evenodd" d="M5.83341 1.19524C5.83352 1.08262 5.79559 0.9728 5.72493 0.881131C5.65427 0.789462 5.55442 0.720535 5.43935 0.683998C5.32427 0.64746 5.19974 0.645139 5.08317 0.677361C4.9666 0.709582 4.86383 0.774733 4.78925 0.863695L0.705913 5.72341C0.626256 5.81819 0.583008 5.93486 0.583008 6.05495C0.583008 6.17504 0.626256 6.2917 0.705913 6.38649L4.78925 11.2462C4.86383 11.3352 4.9666 11.4003 5.08317 11.4325C5.19974 11.4648 5.32427 11.4624 5.43935 11.4259C5.55442 11.3894 5.65427 11.3204 5.72493 11.2288C5.79559 11.1371 5.83352 11.0273 5.83341 10.9147V8.76019C8.97116 8.82066 10.4785 9.37197 11.2357 9.97134C11.9555 10.541 12.0873 11.2111 12.2244 11.9131L12.26 12.0939C12.2862 12.2234 12.3625 12.3395 12.4747 12.4205C12.5869 12.5014 12.7272 12.5416 12.8692 12.5335C13.0112 12.5254 13.1451 12.4696 13.2457 12.3765C13.3464 12.2834 13.4068 12.1595 13.4156 12.0281C13.5153 10.5442 13.3654 8.39409 12.2332 6.59546C11.1342 4.84974 9.15491 3.50738 5.83341 3.36699V1.19524Z" fill="#40E0D0"/>
</svg>
