<svg width="81" height="77" viewBox="0 0 81 77" fill="none" xmlns="http://www.w3.org/2000/svg">
<path d="M5.83922 19.4039L39.8525 0.571523L73.8658 19.4039V57.0329L39.8525 75.8653L5.83922 57.0329V19.4039Z" fill="white" stroke="#0E0E0E"/>
<path d="M20.7759 71.3598L1.1507 38.7617L20.7759 6.16359H60.0632L79.6885 38.7617L60.0632 71.3598H20.7759Z" stroke="#0E0E0E"/>
<g clip-path="url(#clip0_8_115)">
<path d="M49.6562 31.25V29.6875C49.6562 29.2731 49.4916 28.8757 49.1986 28.5826C48.9056 28.2896 48.5082 28.125 48.0938 28.125H30.9062C30.4918 28.125 30.0944 28.2896 29.8014 28.5826C29.5084 28.8757 29.3438 29.2731 29.3438 29.6875V31.25C29.3438 31.6644 29.5084 32.0618 29.8014 32.3549C30.0944 32.6479 30.4918 32.8125 30.9062 32.8125V42.1875H30.125C29.9178 42.1875 29.7191 42.2698 29.5726 42.4163C29.4261 42.5628 29.3438 42.7615 29.3438 42.9688C29.3438 43.176 29.4261 43.3747 29.5726 43.5212C29.7191 43.6677 29.9178 43.75 30.125 43.75H38.7188V45.4492C38.1975 45.6335 37.7582 45.9961 37.4784 46.473C37.1987 46.9499 37.0965 47.5103 37.19 48.0553C37.2835 48.6002 37.5666 49.0945 37.9893 49.4509C38.412 49.8072 38.9471 50.0027 39.5 50.0027C40.0529 50.0027 40.588 49.8072 41.0107 49.4509C41.4334 49.0945 41.7165 48.6002 41.81 48.0553C41.9035 47.5103 41.8013 46.9499 41.5216 46.473C41.2418 45.9961 40.8025 45.6335 40.2812 45.4492V43.75H48.875C49.0822 43.75 49.2809 43.6677 49.4274 43.5212C49.5739 43.3747 49.6562 43.176 49.6562 42.9688C49.6562 42.7615 49.5739 42.5628 49.4274 42.4163C49.2809 42.2698 49.0822 42.1875 48.875 42.1875H48.0938V32.8125C48.5082 32.8125 48.9056 32.6479 49.1986 32.3549C49.4916 32.0618 49.6562 31.6644 49.6562 31.25ZM39.5 48.4375C39.3455 48.4375 39.1944 48.3917 39.066 48.3058C38.9375 48.22 38.8373 48.098 38.7782 47.9552C38.7191 47.8125 38.7036 47.6554 38.7338 47.5038C38.7639 47.3523 38.8383 47.2131 38.9476 47.1038C39.0568 46.9946 39.196 46.9202 39.3476 46.89C39.4991 46.8599 39.6562 46.8753 39.799 46.9345C39.9417 46.9936 40.0637 47.0937 40.1496 47.2222C40.2354 47.3507 40.2812 47.5017 40.2812 47.6562C40.2812 47.8635 40.1989 48.0622 40.0524 48.2087C39.9059 48.3552 39.7072 48.4375 39.5 48.4375ZM30.9062 29.6875H48.0938V31.25H30.9062V29.6875ZM46.5312 42.1875H32.4688V32.8125H46.5312V42.1875Z" fill="black"/>
</g>
<defs>
<clipPath id="clip0_8_115">
<rect width="25" height="25" fill="white" transform="translate(27 25)"/>
</clipPath>
</defs>
</svg>
