<svg width="80" height="77" viewBox="0 0 80 77" fill="none" xmlns="http://www.w3.org/2000/svg">
<path d="M5.80791 19.403L39.6188 0.572318L73.4296 19.403V57.0337L39.6188 75.8645L5.80791 57.0337V19.403Z" fill="white" stroke="#0E0E0E"/>
<path d="M20.6566 71.3598L1.14648 38.7617L20.6566 6.16361H59.7085L79.2186 38.7617L59.7085 71.3598H20.6566Z" stroke="#0E0E0E"/>
<path d="M32.4688 32.7719V46.875H46.5312V32.7719L40.4891 27.8281C40.21 27.5999 39.8605 27.4753 39.5 27.4753C39.1395 27.4753 38.79 27.5999 38.5109 27.8281L32.4688 32.7719ZM41.4781 26.6188L47.8062 31.7969C47.896 31.8701 47.9683 31.9623 48.0181 32.0669C48.0678 32.1715 48.0936 32.2858 48.0938 32.4016V47.6563C48.0938 47.8635 48.0114 48.0622 47.8649 48.2087C47.7184 48.3552 47.5197 48.4375 47.3125 48.4375H31.6875C31.4803 48.4375 31.2816 48.3552 31.1351 48.2087C30.9886 48.0622 30.9063 47.8635 30.9063 47.6563V32.4016C30.9062 32.2859 30.9318 32.1717 30.9812 32.0671C31.0307 31.9625 31.1027 31.8702 31.1922 31.7969L37.5203 26.6188C38.0786 26.1619 38.7778 25.9124 39.4992 25.9124C40.2206 25.9124 40.9198 26.1619 41.4781 26.6188Z" fill="black"/>
<path d="M39.5 35.9375C39.9144 35.9375 40.3118 35.7729 40.6049 35.4799C40.8979 35.1868 41.0625 34.7894 41.0625 34.375C41.0625 33.9606 40.8979 33.5632 40.6049 33.2701C40.3118 32.9771 39.9144 32.8125 39.5 32.8125C39.0856 32.8125 38.6882 32.9771 38.3951 33.2701C38.1021 33.5632 37.9375 33.9606 37.9375 34.375C37.9375 34.7894 38.1021 35.1868 38.3951 35.4799C38.6882 35.7729 39.0856 35.9375 39.5 35.9375ZM39.5 37.5C38.6712 37.5 37.8763 37.1708 37.2903 36.5847C36.7042 35.9987 36.375 35.2038 36.375 34.375C36.375 33.5462 36.7042 32.7513 37.2903 32.1653C37.8763 31.5792 38.6712 31.25 39.5 31.25C40.3288 31.25 41.1237 31.5792 41.7097 32.1653C42.2958 32.7513 42.625 33.5462 42.625 34.375C42.625 35.2038 42.2958 35.9987 41.7097 36.5847C41.1237 37.1708 40.3288 37.5 39.5 37.5Z" fill="black"/>
</svg>
