<svg width="81" height="77" viewBox="0 0 81 77" fill="none" xmlns="http://www.w3.org/2000/svg">
<path d="M5.82352 19.4035L39.7353 0.57192L73.6471 19.4035V57.0333L39.7353 75.8649L5.82352 57.0333V19.4035Z" fill="white" stroke="#0E0E0E"/>
<path d="M20.7161 71.3598L1.14859 38.7617L20.7161 6.16361H59.8853L79.4529 38.7617L59.8853 71.3598H20.7161Z" stroke="#0E0E0E"/>
<path d="M43.7969 32.6172V31.4453C43.7969 31.3379 43.709 31.25 43.6016 31.25H34.2266C34.1191 31.25 34.0312 31.3379 34.0312 31.4453V32.6172C34.0312 32.7246 34.1191 32.8125 34.2266 32.8125H43.6016C43.709 32.8125 43.7969 32.7246 43.7969 32.6172ZM34.2266 34.7656C34.1191 34.7656 34.0312 34.8535 34.0312 34.9609V36.1328C34.0312 36.2402 34.1191 36.3281 34.2266 36.3281H38.7187C38.8262 36.3281 38.9141 36.2402 38.9141 36.1328V34.9609C38.9141 34.8535 38.8262 34.7656 38.7187 34.7656H34.2266ZM37.7422 45.8008H32.0781V28.6133H45.75V37.0117C45.75 37.1191 45.8379 37.207 45.9453 37.207H47.3125C47.4199 37.207 47.5078 37.1191 47.5078 37.0117V27.6367C47.5078 27.2046 47.1587 26.8555 46.7266 26.8555H31.1016C30.6694 26.8555 30.3203 27.2046 30.3203 27.6367V46.7773C30.3203 47.2095 30.6694 47.5586 31.1016 47.5586H37.7422C37.8496 47.5586 37.9375 47.4707 37.9375 47.3633V45.9961C37.9375 45.8887 37.8496 45.8008 37.7422 45.8008ZM48.6235 47.0581L46.3457 44.7803C46.8901 44.0601 47.2148 43.1616 47.2148 42.1875C47.2148 39.8145 45.291 37.8906 42.918 37.8906C40.5449 37.8906 38.6211 39.8145 38.6211 42.1875C38.6211 44.5605 40.5449 46.4844 42.918 46.4844C43.792 46.4844 44.6025 46.2231 45.2812 45.7764L47.5933 48.0884C47.6323 48.1274 47.6812 48.1445 47.73 48.1445C47.7788 48.1445 47.8301 48.125 47.8667 48.0884L48.6235 47.3315C48.6415 47.3136 48.6558 47.2923 48.6656 47.2689C48.6753 47.2454 48.6804 47.2202 48.6804 47.1948C48.6804 47.1694 48.6753 47.1443 48.6656 47.1208C48.6558 47.0973 48.6415 47.076 48.6235 47.0581ZM42.918 44.9219C41.4067 44.9219 40.1836 43.6987 40.1836 42.1875C40.1836 40.6763 41.4067 39.4531 42.918 39.4531C44.4292 39.4531 45.6523 40.6763 45.6523 42.1875C45.6523 43.6987 44.4292 44.9219 42.918 44.9219Z" fill="black"/>
</svg>
