<svg width="24" height="12" viewBox="0 0 24 12" fill="none" xmlns="http://www.w3.org/2000/svg">
<path d="M5.25002 11.4877C4.31053 11.4875 3.38831 11.2352 2.57956 10.7571C1.77081 10.279 1.10516 9.59272 0.652051 8.76972C0.198943 7.94672 -0.0250208 7.01722 0.00352281 6.07817C0.0320664 5.13912 0.312072 4.22493 0.814329 3.43097C1.31659 2.63701 2.02269 1.99238 2.85899 1.56431C3.69528 1.13625 4.63112 0.940432 5.56888 0.997299C6.50664 1.05417 7.41197 1.36163 8.19041 1.88762C8.96885 2.4136 9.59188 3.13884 9.99452 3.98767H21L23.25 6.23767L21 8.48767L19.5 6.98767L18 8.48767L16.5 6.98767L15 8.48767L13.5 6.98767L12 8.48767H9.99452C9.56866 9.38547 8.89675 10.144 8.05688 10.675C7.21702 11.2061 6.24369 11.4879 5.25002 11.4877ZM3.75002 7.73767C4.14784 7.73767 4.52937 7.57964 4.81068 7.29833C5.09198 7.01703 5.25002 6.6355 5.25002 6.23767C5.25002 5.83985 5.09198 5.45832 4.81068 5.17701C4.52937 4.89571 4.14784 4.73767 3.75002 4.73767C3.35219 4.73767 2.97066 4.89571 2.68936 5.17701C2.40805 5.45832 2.25002 5.83985 2.25002 6.23767C2.25002 6.6355 2.40805 7.01703 2.68936 7.29833C2.97066 7.57964 3.35219 7.73767 3.75002 7.73767Z" fill="#545454"/>
</svg>
